<?xml version="1.0" standalone="no"?>
<!DOCTYPE svg PUBLIC "-//W3C//DTD SVG 20010904//EN"
 "http://www.w3.org/TR/2001/REC-SVG-20010904/DTD/svg10.dtd">
<svg version="1.0" xmlns="http://www.w3.org/2000/svg"
 width="500.000000pt" height="500.000000pt" viewBox="0 0 500.000000 500.000000"
 preserveAspectRatio="xMidYMid meet">

<g transform="translate(0.000000,500.000000) scale(0.100000,-0.100000)"
fill="#000000" stroke="none">
<path d="M2254 3205 c-10 -8 -37 -15 -59 -16 -25 -1 -31 -3 -17 -6 18 -4 22
-9 16 -26 -17 -54 -25 -68 -46 -77 l-23 -9 22 0 22 -1 -19 -66 c-10 -37 -27
-78 -38 -93 -47 -64 -113 -18 -79 55 9 19 27 39 39 44 l23 9 -23 0 c-25 1 -62
-49 -62 -84 0 -61 70 -86 115 -41 21 21 65 137 65 172 0 8 9 14 20 14 16 0 20
-7 20 -32 l1 -33 14 40 c18 49 19 63 3 47 -16 -16 -48 -15 -48 2 0 36 23 75
51 85 16 5 29 15 29 20 0 14 -2 14 -26 -4z"/>
<path d="M3294 3175 c-9 -37 0 -40 13 -5 6 17 7 30 2 30 -5 0 -11 -11 -15 -25z"/>
<path d="M1632 3167 c-12 -13 -33 -46 -46 -73 -29 -56 -32 -49 -11 22 19 63
19 64 -7 63 -13 0 -18 -3 -11 -5 9 -4 8 -13 -2 -37 -17 -43 -38 -184 -30 -205
5 -12 18 13 40 77 40 111 77 171 105 171 46 0 14 -73 -45 -103 l-30 -16 37 6
c34 5 38 3 44 -21 19 -75 -54 -166 -134 -166 -27 0 -62 26 -62 45 0 5 8 17 18
28 13 16 14 19 2 15 -8 -2 -19 -17 -24 -31 -15 -41 14 -67 77 -67 57 0 94 19
125 64 26 38 29 101 6 127 -14 16 -14 20 6 47 45 61 -7 114 -58 59z"/>
<path d="M1874 3157 c-16 -19 -34 -42 -40 -52 -14 -25 -44 -13 -44 19 0 14 9
31 22 40 25 18 17 21 -13 6 -26 -15 -26 -73 1 -91 18 -13 19 -18 9 -56 -9 -32
-8 -48 3 -70 21 -44 50 -41 93 9 l38 43 -7 -34 c-22 -120 -58 -171 -119 -171
-61 0 -90 67 -47 110 14 14 16 20 7 20 -23 0 -47 -35 -47 -68 0 -41 39 -72 91
-72 46 0 102 44 118 93 17 52 51 220 46 225 -7 7 -7 7 -49 -75 -21 -39 -47
-80 -58 -90 -19 -17 -20 -17 -34 2 -10 13 -13 32 -9 55 11 61 15 68 45 75 35
8 94 71 86 92 -3 8 -6 17 -6 19 0 2 -13 4 -29 4 -20 0 -37 -10 -57 -33z m76 7
c0 -27 -19 -53 -51 -70 -35 -18 -44 -14 -35 14 17 54 86 99 86 56z"/>
<path d="M3238 3173 c-9 -10 -21 -35 -27 -55 -7 -20 -20 -39 -29 -41 -14 -4
-15 -5 -1 -6 14 -1 15 -9 7 -58 -5 -32 -20 -81 -33 -110 -36 -74 -33 -123 5
-103 21 11 36 68 46 170 8 91 16 107 51 113 27 4 26 4 -4 6 -31 1 -31 2 -22
34 5 17 18 40 30 50 15 12 17 17 7 17 -8 0 -22 -8 -30 -17z m-67 -307 c-10
-56 -31 -85 -31 -44 0 27 28 103 36 96 2 -3 0 -26 -5 -52z"/>
<path d="M2089 3151 c-31 -32 -37 -62 -16 -80 11 -8 13 -5 9 20 -5 32 17 65
53 80 18 7 18 8 2 8 -10 1 -32 -12 -48 -28z"/>
<path d="M1494 3151 c-38 -23 -48 -37 -38 -53 5 -7 10 -4 15 10 5 12 23 31 41
42 18 11 29 20 23 20 -5 0 -24 -9 -41 -19z"/>
<path d="M3337 3154 c-4 -4 -7 -14 -7 -23 0 -11 3 -12 11 -4 6 6 10 16 7 23
-2 6 -7 8 -11 4z"/>
<path d="M2465 3106 c-24 -36 -65 -43 -86 -14 -21 27 -36 19 -20 -10 16 -30
13 -72 -9 -120 -14 -31 -25 -43 -37 -40 -34 6 -28 98 8 136 15 17 16 22 5 22
-39 0 -79 -107 -56 -150 27 -51 97 0 107 79 5 33 11 45 30 52 38 14 42 11 32
-23 -10 -37 -12 -138 -3 -162 6 -17 49 -22 58 -8 3 5 -5 8 -17 8 -20 -1 -22 5
-25 49 -1 28 4 73 11 100 11 43 17 51 43 56 29 7 29 7 2 8 -21 1 -25 5 -21 21
7 27 -3 25 -22 -4z"/>
<path d="M2610 3096 c0 -8 5 -18 11 -22 17 -10 4 -92 -18 -123 -28 -36 -47
-33 -51 8 -5 45 4 77 28 101 15 15 16 20 6 20 -21 0 -54 -47 -62 -87 -16 -86
50 -114 93 -38 13 22 23 55 23 73 0 21 5 32 15 32 10 0 7 7 -9 25 -27 28 -36
31 -36 11z"/>
<path d="M2938 3073 c-34 -37 -62 -82 -55 -89 3 -3 15 12 26 34 27 52 41 61
42 25 1 -28 1 -27 14 7 23 60 15 67 -27 23z"/>
<path d="M2718 3063 c-35 -37 -54 -103 -39 -132 17 -31 38 -26 67 19 15 22 28
39 29 38 2 -2 0 -21 -4 -43 -5 -35 -10 -40 -40 -46 -18 -4 -45 -19 -60 -35
l-26 -27 33 26 c19 15 45 27 58 27 22 0 24 -3 19 -22 -10 -34 -34 -68 -47 -68
-6 0 -9 -3 -6 -6 13 -12 47 18 64 56 20 44 28 49 43 23 10 -17 10 -17 11 -1 0
9 -7 21 -17 26 -14 8 -15 16 -4 68 6 33 14 69 17 82 11 40 -10 23 -41 -34 -16
-30 -41 -65 -54 -77 l-24 -22 6 55 c7 62 35 105 65 104 12 0 19 3 16 8 -10 16
-41 7 -66 -19z"/>
<path d="M2870 3069 c-17 -30 -26 -149 -12 -149 12 0 25 47 17 60 -3 5 0 30 6
55 13 51 7 69 -11 34z"/>
<path d="M3026 3060 c-33 -40 -51 -103 -36 -130 16 -31 37 -24 71 23 32 42 32
42 26 11 -8 -45 5 -89 29 -91 10 -2 13 0 7 3 -17 8 -16 108 1 157 21 58 -4 46
-39 -19 -16 -30 -40 -65 -52 -76 l-23 -21 0 30 c0 67 40 138 72 130 10 -3 16
-1 12 4 -11 18 -43 8 -68 -21z"/>
<path d="M3396 3060 c-33 -40 -51 -103 -36 -130 16 -31 37 -24 71 23 32 42 32
42 26 11 -8 -45 5 -89 29 -91 10 -2 13 0 7 3 -17 8 -16 108 1 157 21 58 -4 46
-39 -19 -16 -30 -40 -65 -52 -76 l-23 -21 0 30 c0 67 40 138 72 130 10 -3 16
-1 12 4 -11 18 -43 8 -68 -21z"/>
<path d="M3301 3057 c-16 -42 -24 -134 -12 -141 7 -5 11 3 11 22 0 16 7 51 15
78 18 58 18 64 5 64 -6 0 -14 -10 -19 -23z"/>
<path d="M2650 2800 c0 -5 5 -10 11 -10 5 0 7 5 4 10 -3 6 -8 10 -11 10 -2 0
-4 -4 -4 -10z"/>
<path d="M1788 2703 c28 -2 76 -2 105 0 28 2 5 3 -53 3 -58 0 -81 -1 -52 -3z"/>
</g>
</svg>
